<?xml version="1.0" encoding="UTF-8"?>
<svg width="80px" height="80px" viewBox="0 0 80 80" version="1.1" xmlns="http://www.w3.org/2000/svg" xmlns:xlink="http://www.w3.org/1999/xlink">
    <!-- Generator: Sketch 52.6 (67491) - http://www.bohemiancoding.com/sketch -->
    <title>icon/猫头鹰@3x</title>
    <desc>Created with Sketch.</desc>
    <defs>
        <linearGradient x1="0%" y1="0%" x2="95.0624859%" y2="100%" id="linearGradient-1">
            <stop stop-color="#EFF0FC" offset="0%"></stop>
            <stop stop-color="#FFFFFF" offset="100%"></stop>
        </linearGradient>
        <polygon id="path-2" points="0 0.00509136421 39.9879521 0.00509136421 39.9879521 38.4981076 0 38.4981076"></polygon>
    </defs>
    <g id="icon/猫头鹰" stroke="none" stroke-width="1" fill="none" fill-rule="evenodd">
        <circle id="Oval" fill="url(#linearGradient-1)" cx="40" cy="40" r="40"></circle>
        <g id="Group-8" transform="translate(20.000000, 12.000000)">
            <path d="M6.93666083,12.924776 C6.50722403,13.434413 6.248,14.0922353 6.248,14.8108335 C6.248,16.4286558 7.55948936,17.7401452 9.17731164,17.7401452 C10.5200401,17.7401452 11.6509537,16.8363154 11.9969862,15.6041752 C12.8568611,16.1151139 14.0915044,16.9876546 13.979965,16.9050013 C13.1717547,18.7559149 11.3260976,20.0500325 9.17731164,20.0500325 C6.28374468,20.0500325 3.93811264,17.7043504 3.93811264,14.8108335 C3.93811264,13.7233242 4.26957697,12.7132616 4.83683605,11.875965 C5.53135419,12.2260526 6.23568461,12.5753892 6.93666083,12.924776 M31.5186383,11.8184431 C31.5404656,11.8049762 31.5612916,11.791209 31.5829186,11.7776421 C32.0906033,12.5846508 32.3845207,13.5396946 32.3845207,14.5634743 C32.3845207,17.4570413 30.0388886,19.8027234 27.1453217,19.8027234 C25.1010663,19.8027234 23.3319049,18.6309587 22.4686258,16.9233242 C23.0386383,16.5229737 23.712781,16.1074043 24.43999,15.6878298 C24.8809412,16.7475544 25.9259474,17.492786 27.1453217,17.492786 C28.7631439,17.492786 30.0746333,16.1812966 30.0746333,14.5634743 C30.0746333,13.9556646 29.8894018,13.3911089 29.5724556,12.9230738 C30.3068235,12.5278798 30.9746083,12.1554643 31.5186383,11.8184431 M3.26562203,10.9902578 C2.55303129,12.0905832 2.1389637,13.4023229 2.1389637,14.8108335 C2.1389637,18.6978924 5.29010263,21.8490313 9.17721151,21.8490313 C11.8647209,21.8490313 14.2000401,20.3424981 15.3857222,18.1281302 C16.327199,19.1907584 18.0198148,21.8490313 18.0198148,21.8490313 C18.0198148,21.8490313 19.3155344,19.9214718 21.0673242,18.1126608 C22.2885006,20.1995194 24.5529312,21.6016721 27.1454218,21.6016721 C31.0324806,21.6016721 34.1836696,18.4505832 34.1836696,14.5634743 C34.1836696,13.1549637 33.769602,11.8432741 33.0570113,10.7428986 C32.972005,10.7985682 32.8846458,10.8538373 32.7957347,10.908806 C36.8995144,7.54354944 36.2703279,2.97043304 35.5277497,0.000120150188 C35.1725557,3.90765457 29.8947584,6.85103379 29.8947584,6.85103379 C29.8947584,6.85103379 19.8974618,11.6213467 18.1212916,14.5139625 C17.580816,13.6582428 16.7160851,12.8380676 15.6533066,12.0507835 C13.6022929,10.5313342 10.8137572,9.13453817 8.19388235,7.84132165 C7.58241802,7.53954443 6.98006508,7.24332416 6.39853817,6.9525607 C2.03423279,4.77038298 0.613306633,0.000120150188 0.613306633,0.000120150188 C-0.482663329,5.52572716 -0.393802253,8.59431289 3.26562203,10.9902578" id="Fill-1" fill="#3A489B"></path>
            <path d="M29.1075394,5.67484355 C22.4686408,0.676846058 12.4372015,0.676846058 6.96451064,5.67484355 C14.0584781,8.52045056 18.0360501,11.9753191 18.0360501,11.9753191 C18.0360501,11.9753191 22.7549987,8.17536921 29.1075394,5.67484355" id="Fill-3" fill="#3A489B"></path>
            <g id="Group-7" transform="translate(0.000000, 17.038798)">
                <mask id="mask-3" fill="white">
                    <use xlink:href="#path-2"></use>
                </mask>
                <g id="Clip-6"></g>
                <path d="M32.9186033,16.6780826 C32.8884155,16.6910488 32.8578273,16.7041151 32.8274894,16.7170814 C34.8299925,15.4328761 36.4302929,13.7762053 37.4971765,11.8756796 C41.1851364,5.30656821 39.6868636,0.00509136421 39.6868636,0.00509136421 C28.6450613,6.42481602 19.2405056,12.1527259 8.76891615,9.29380225 C7.17652566,8.75457822 5.88846558,7.98972215 4.87234543,7.11312641 C4.07735169,6.38761952 3.41917897,5.57109887 2.87930413,4.75678098 C2.84491114,4.69910889 2.81136921,4.64138673 2.77862829,4.58366458 C2.16075594,3.492801 0.732871089,0.00509136421 0.732871089,0.00509136421 C0.732871089,0.00509136421 -5.83629036,17.7533767 20.3604556,38.4981076 C25.9723204,33.7729512 31.0432591,28.2409862 31.0432591,28.2409862 C31.0432591,28.2409862 28.7382778,29.1629887 23.8978773,28.2409862 C28.8535219,27.3190338 38.4677897,24.4390839 39.2258874,13.4891965 C39.2258874,13.4891965 38.7162503,13.8243655 37.695224,14.3809612 C36.2871139,15.1322003 34.4695419,15.9809612 32.9186033,16.6780826" id="Fill-5" fill="#3A489B" mask="url(#mask-3)"></path>
            </g>
        </g>
    </g>
</svg>