<svg id="图层_1" data-name="图层 1" xmlns="http://www.w3.org/2000/svg" viewBox="0 0 327.61 112"><defs><style>.cls-1{fill:#6ab8e4;}.cls-2{fill:#080507;}.cls-3{fill:#0d172a;}</style></defs><title>树枝5</title><path class="cls-1" d="M3.55,91.66s11.9,6.08,24,1.39S44.39,75.19,44.39,75.19,30.16,69,18.9,73.38,3.55,91.66,3.55,91.66Z"/><path class="cls-2" d="M9.94,88.36s18.8-6.68,25.34-9,21.24-9.08,21.24-9.08S45.27,73,34.9,76.27,9.94,88.36,9.94,88.36Z"/><path class="cls-3" d="M284.27,50.26c-12.83-.9-37.06-38.16-58.1-38.9C151.46,8.75,44.56,7.18,44.56,7.18s-7.11.76-4,11.66c1.67,5.83,4.5,7.16,4.5,7.16l26.75,2L52.21,77.9,95,30s69.57-.35,119.28,12.69c20.33,5.33,43,33.29,48.28,37.2,16.5,12.2,65.14,22.55,65.14,22.55l4.87-57.15S295.14,51,284.27,50.26Z"/></svg>