<svg id="图层_1" data-name="图层 1" xmlns="http://www.w3.org/2000/svg" viewBox="0 0 307.5 197.5"><defs><style>.cls-1{fill:#489ad2;}.cls-2{fill:#080507;}.cls-3{fill:#0f2343;}</style></defs><title>树枝3</title><path class="cls-1" d="M247.14,10.56S239.51,22.19,241.56,40s13.38,30.8,13.38,30.8,7.2-16.77,5.23-33.33A47.57,47.57,0,0,0,247.14,10.56Z"/><path class="cls-2" d="M249.33,20.24s1.93,26.28,2.71,35.81,5.2,32.63,5.2,32.63-1.66-17-2.5-32S249.33,20.24,249.33,20.24Z"/><path class="cls-3" d="M289.83,118.9S263,91.74,252.43,79.3c6,17.66,12.17,39.51,12.17,39.51l-153,2.06c-20.25.27-100.75-15.12-100.75-15.12S-.49,107.85,1.06,119c1.5,10.75,9.5,12.25,9.5,12.25L37.41,134l-6,18L10.31,171a4.25,4.25,0,0,0,1,3c.85.95,2.72.78,2.72.78l29.09-18.17,9.91-17.33s50.29,3,68.5,4.25c36.5,2.5,74.18,0,103.16,7.4,8.62,16.27,33.51,42.12,33.51,42.12s-11.63-31.8-11.63-37.54c7.66,1,66,10.62,66,10.62l-4.53-44.3Z"/></svg>