<svg id="图层_1" data-name="图层 1" xmlns="http://www.w3.org/2000/svg" viewBox="0 0 250 167.51"><defs><style>.cls-1{fill:#489ad2;}.cls-2{fill:#112e55;}</style></defs><title>树枝2</title><path class="cls-1" d="M76.31,155.52s20.75,9.57,49.16,1.89,46.74-29.22,46.74-29.22-29-7.6-55.38-.37S76.31,155.52,76.31,155.52Z"/><path class="cls-2" d="M91.49,149.62S133.7,140.09,149,136.5s51.71-16.39,51.71-16.39S173.46,127,149.32,132,91.49,149.62,91.49,149.62Z"/><path class="cls-2" d="M50.56,52s88.92,55.84,123.75,65.88c33.24,9.57,66.86,18.87,71.25,18.62,9-.5,8-25,8-25s-56.66-12-74.7-18.67c-33-12.26-125.8-63.33-125.8-63.33Z"/><path class="cls-2" d="M128.9,9.49s17.35,39.75,15.48,53.56c-.72,5.36-11.3,18.42-11.3,18.42l22.6,8.37s10.36-18.68,10-25.53C165,47.81,136,5.3,136,5.3Z"/></svg>