<svg id="图层_1" data-name="图层 1" xmlns="http://www.w3.org/2000/svg" viewBox="0 0 293.5 180.5"><defs><style>.cls-1{fill:#080507;}.cls-2{fill:#489ad2;}</style></defs><title>树枝7</title><path class="cls-1" d="M200.06,80.5c-38.9-5.84-96.5-4-133-9C51.5,58.8,25.22,21.83,25.22,21.83S38,59.42,40.06,68.33c-9.73-1.91-22-4.68-22-4.68s-5.71-1.32-7.55,9.85c-2.73,16.66.5,18,.5,18s74.5,5,99,4.5c23.75-.48,59.5-1.5,103.64,13.76,4.87,17.77,23.54,48.42,23.54,48.42s-4.43-33.57-3.18-39.18c7.27,2.6,53.13,32.75,53.13,32.75L293,117.93S220.06,83.5,200.06,80.5Z"/><path class="cls-2" d="M286,171.92s-4.42-9-16.21-14.24-24-3-24-3,7.76,10.6,18.75,15.44A34.28,34.28,0,0,0,286,171.92Z"/><path class="cls-1" d="M279.21,169.73s-17-8.43-23.19-11.43-22.13-8.72-22.13-8.72,11.16,5.2,20.75,10.17S279.21,169.73,279.21,169.73Z"/></svg>