<svg id="图层_1" data-name="图层 1" xmlns="http://www.w3.org/2000/svg" viewBox="0 0 300 270"><defs><style>.cls-1{fill:#0f2343;}.cls-2{fill:#489ad2;}.cls-3{fill:#080507;}</style></defs><title>树枝4</title><path class="cls-1" d="M14.27,123s26.86-27.15,37.4-39.6C45.67,101.11,39.5,123,39.5,123l171.24,2.3s20,1.53,26.59.36c10.2-1.82,38.67-14.87,38.67-14.87s6.76,4.48,6.5,15c-.25,10-1,16.75-1,16.75L241,150.75l9.59,21,26.79,16.49-.26,3-32.87-12-23.5-27.75S124.38,143.55,79.38,155c-8.62,16.28-33.51,42.13-33.51,42.13s11.63-31.8,11.63-37.55c-7.66,1-66,10.63-66,10.63L-4,125.94Z"/><path class="cls-2" d="M37.6,10.14S30,21.78,32,39.58,45.4,70.38,45.4,70.38s7.2-16.77,5.23-33.33A47.57,47.57,0,0,0,37.6,10.14Z"/><path class="cls-3" d="M39.79,19.82s1.92,26.28,2.7,35.81S47.7,88.26,47.7,88.26s-1.67-17-2.5-32S39.79,19.82,39.79,19.82Z"/><path class="cls-2" d="M84.86,99.43s-6.53-4.06-16.34-2.68a34.68,34.68,0,0,0-16.83,7.8s9.36,3.75,18.48,2.44A26.28,26.28,0,0,0,84.86,99.43Z"/><path class="cls-3" d="M79.54,100.77s-14.49,1.42-19.74,2-18,3.31-18,3.31,9.38-1.15,17.65-1.81S79.54,100.77,79.54,100.77Z"/></svg>