<svg id="图层_1" data-name="图层 1" xmlns="http://www.w3.org/2000/svg" viewBox="0 0 207.01 255.66"><defs><style>.cls-1{fill:#112e55;}.cls-2{fill:#489ad2;}.cls-3{fill:#080507;}</style></defs><title>树枝01</title><path class="cls-1" d="M198.72,89.6S109.8,145.44,75,155.48C41.73,165.05,8.11,174.35,3.72,174.1c-9-.5-8-25-8-25s56.66-12,74.71-18.67c33-12.26,125.79-63.33,125.79-63.33Z"/><path class="cls-1" d="M110.68-3.37S117.28,82.26,107,101c-16.63,30.33-36.77,50.94-40,53.89-6.69,6-23.37-11.94-23.37-11.94S78.07,104.09,86,86.56c7.38-16.24.57-90.11.57-90.11Z"/><path class="cls-1" d="M192.28,164.8s-41.37-13-50.56-23.51c-3.56-4.06-6.46-20.62-6.46-20.62L114.1,132.22s7.28,20.07,12.66,24.34c12.93,10.26,64,16.35,64,16.35Z"/><path class="cls-1" d="M151.13,10.65s-17.67,8-27.17,10.21c-3.67.85-14.83-2.83-14.83-2.83l-.81,23.15s14.78,1,19.18-.9C138.1,35.7,152.88,19,152.88,19Z"/><path class="cls-1" d="M50.23,10.09S71.82,47.71,84,54.44c4.73,2.61,21.52,1.9,21.52,1.9L98.8,79.47s-21.17-2.81-26.48-7.14c-12.8-10.44-29.68-59-29.68-59Z"/><path class="cls-2" d="M126.11,252.8s13-14,14.2-38.53-11.12-44.64-11.12-44.64-13.52,21-14.6,43.85A65.22,65.22,0,0,0,126.11,252.8Z"/><path class="cls-3" d="M125.35,239.22s3.34-35.95,4.44-49,.34-45.27.34-45.27-1.6,23.37-3.86,43.82S125.35,239.22,125.35,239.22Z"/></svg>