<svg xmlns="http://www.w3.org/2000/svg" xmlns:xlink="http://www.w3.org/1999/xlink" viewBox="0 0 106.67 121.33"><defs><style>.cls-1{isolation:isolate;}.cls-2{opacity:0.3;mix-blend-mode:multiply;fill:url(#linear-gradient);}.cls-3{fill:#22b473;}.cls-4{fill:#00a89c;}.cls-5{fill:#39b44a;}.cls-6{fill:#009145;}.cls-7{fill:#006837;}</style><linearGradient id="linear-gradient" x1="35.89" y1="35.73" x2="99.62" y2="111.41" gradientUnits="userSpaceOnUse"><stop offset="0" stop-color="#fff"/><stop offset="1"/></linearGradient></defs><title>草1</title><g class="cls-1"><g id="图层_1" data-name="图层 1"><path class="cls-2" d="M56.73,122.08S35.47,59.41,66.24,10.17c0,0,34.14,40.33,20.71,111.91Z"/><path class="cls-3" d="M56.73,122.08S35.47,59.41,66.24,10.17c0,0,34.14,40.33,20.71,111.91Z"/><path class="cls-4" d="M63.58,119.38S55,53.76,94.79,11.49c0,0,25.63,46.05-1.57,113.8Z"/><path class="cls-5" d="M3,3.85c-.1.87-.16,1.72-.25,2.58C-3.91,73.88,30.43,121.36,30.43,121.36l14.09-.49,18.37-.63C60.09,55.33,3,3.85,3,3.85Z"/><path class="cls-6" d="M48.53,119.6,30.9,76.3c8.31-5.13,7.93-13,6.43-16.59l-3.56,1.47c.12.3,2.66,6.76-4.35,11.48L16.63,41.25l-3.57,1.46,7.67,18.83c-5.63,1.58-7.81-2.52-8.06-3L9.18,60.14a10.42,10.42,0,0,0,9.07,5.65,13.21,13.21,0,0,0,3.94-.65L32.11,89.5c-8,1.42-11.6-3.61-11.75-3.83l-3.2,2.15a14.73,14.73,0,0,0,12.13,5.8,20,20,0,0,0,4.3-.49L45,121.05Z"/><path class="cls-7" d="M99.8,72.72l-2-3.28c-2.77,1.72-8.88,2.52-13,3L90,48l-3.77-.81-2.6,12.16-3.81-9.14L76.3,51.68l5.6,13.43.59-.25L76.94,90.79C74.86,87.41,74.06,83,73.34,79l-.08-.41-3.79.69.07.4c.92,5.07,2,11.36,6,15.67l.54-.5L70.6,120.48l3.77.81,9.92-46.4.16,1.46C89.1,75.82,96.11,75,99.8,72.72Z"/></g></g></svg>