<svg id="图层_1" data-name="图层 1" xmlns="http://www.w3.org/2000/svg" xmlns:xlink="http://www.w3.org/1999/xlink" viewBox="0 0 277 66"><defs><style>.cls-1{fill:url(#未命名的渐变_54);}</style><linearGradient id="未命名的渐变_54" x1="3.92" y1="34.19" x2="274.35" y2="34.19" gradientUnits="userSpaceOnUse"><stop offset="0" stop-color="#133766"/><stop offset="1" stop-color="#080507"/></linearGradient></defs><title>草2</title><path class="cls-1" d="M245.53,43.6A29.65,29.65,0,0,0,223,53.87a20.6,20.6,0,0,0-29.25-12.08,16.07,16.07,0,0,0,.36-3.42,16.45,16.45,0,1,0-32.69,2.44,20.17,20.17,0,0,0-3.4-1.47,24.64,24.64,0,0,0-31.6-21.54,27.74,27.74,0,0,0-52.6,12.34c0,.66.06,1.3.1,1.94a20.59,20.59,0,0,0-9.74,6.51A33.92,33.92,0,0,0,3.92,60.05a37,37,0,0,0,.54,6H274.35A29.88,29.88,0,0,0,245.53,43.6Z"/></svg>