<?xml version="1.0" encoding="UTF-8"?>
<svg width="80px" height="80px" viewBox="0 0 80 80" version="1.1" xmlns="http://www.w3.org/2000/svg" xmlns:xlink="http://www.w3.org/1999/xlink">
    <!-- Generator: Sketch 52.6 (67491) - http://www.bohemiancoding.com/sketch -->
    <title>icon/提示@3x</title>
    <desc>Created with Sketch.</desc>
    <g id="icon/提示" stroke="none" stroke-width="1" fill="none" fill-rule="evenodd">
        <path d="M70.733297,14.5270262 C76.44456,21.4460749 79.8767255,30.3203955 79.8767256,39.9982001 C79.8767256,62.089046 61.9954503,79.9964002 39.9383628,79.9964002 C17.8812753,79.9964002 -9.37916411e-13,62.089046 -9.37916411e-13,39.9982001 C-9.37916411e-13,17.9072741 17.8811954,-2.77111667e-13 39.9383628,-2.77111667e-13 C48.6125325,-2.77111667e-13 56.6326516,2.778275 63.1811569,7.48190328 L58.1368239,12.8148633 C52.935218,9.3163807 46.6753397,7.27263266 39.9383628,7.27263266 C21.8906149,7.27263266 7.2621532,21.9244533 7.2621532,39.9982 C7.2621532,58.0718666 21.8906949,72.7237673 39.9383628,72.7237673 C57.9860307,72.7237673 72.6144924,58.0718667 72.6144924,39.9982 C72.6144924,34.9798658 71.4678241,30.2384792 69.4500748,25.9911503 L65.8256825,19.5925046 C65.8984792,19.5209879 67.9602218,17.2468239 68.043418,17.1961062 L70.733297,14.5270262 Z M36,33 L43,33 L43,61 L36,61 L36,33 Z M36,21 L43,21 L43,28 L36,28 L36,21 Z" id="Combined-Shape" fill="#FFA123"></path>
    </g>
</svg>