<?xml version="1.0" encoding="UTF-8"?>
<svg width="18px" height="18px" viewBox="0 0 18 18" version="1.1" xmlns="http://www.w3.org/2000/svg" xmlns:xlink="http://www.w3.org/1999/xlink">
    <!-- Generator: Sketch 52.6 (67491) - http://www.bohemiancoding.com/sketch -->
    <title>Max Width or Height @2x: 28pt x 28pt@2x</title>
    <desc>Created with Sketch.</desc>
    <g id="-" stroke="none" stroke-width="1" fill="none" fill-rule="evenodd">
        <g id="1-9-IDC" transform="translate(-238.000000, -739.000000)" fill="#8997B3" fill-rule="nonzero">
            <g id="图标/钱包/选中" transform="translate(238.000000, 739.000000)">
                <path d="M17.0261678,9.09142282 L17.0249799,9.08886577 L17.0012416,9.08886577 C16.9943557,9.08886577 16.9879933,9.08683221 16.9811074,9.08683221 C16.9742416,9.08683221 16.9677383,9.08886577 16.9609732,9.08886577 L14.8908121,9.08886577 L14.8908121,1.61484564 C14.8908121,0.686436242 14.1831745,3.38062911e-14 13.2452416,3.38062911e-14 L4.75467785,3.38062911e-14 C3.81686577,3.38062911e-14 3.10910738,0.686436242 3.10910738,1.61484564 L3.10910738,9.08886577 L0.998778523,9.08886577 C0.848516779,9.08886577 0.745449664,9.12828859 0.745449664,9.12828859 C0.316550336,9.24714094 0,9.63293289 0,10.0952349 C0,10.3491275 0.097852349,10.5781946 0.25409396,10.7554362 L7.416,16.9420403 C7.85120134,17.2844631 8.40084564,17.4907383 8.9999396,17.4907383 C9.60402685,17.4907383 10.1582013,17.2816242 10.5949732,16.9338054 L17.7591342,10.7392886 C17.9072819,10.5642416 18,10.3415772 18,10.0952349 C18,9.5537047 17.5673557,9.11530201 17.0261678,9.09142282 Z M11.250745,8.88822819 C11.625745,8.88822819 11.8868456,9.07807383 11.8868456,9.56103356 C11.8868456,9.93226846 11.7080134,10.1800403 11.3329933,10.1800403 L9.81815436,10.1800403 L9.81815436,11.5526107 C9.81815436,12.0165839 9.46894631,12.3600537 9.0000604,12.3600537 C8.53099329,12.3600537 8.18178523,12.0165638 8.18178523,11.5526107 L8.18178523,10.1800403 L6.70916779,10.1800403 C6.33404698,10.1800403 6.11319463,9.87136242 6.11319463,9.50006711 C6.11319463,9.12865101 6.33404698,8.88822819 6.70916779,8.88822819 L8.18178523,8.88822819 L8.18178523,8.08080537 L6.70916779,8.08080537 C6.33404698,8.08080537 6.11319463,7.79351007 6.11319463,7.42225503 C6.11319463,7.051 6.33404698,6.78887248 6.70916779,6.78887248 L8.13410738,6.78939597 L6.6435906,5.31371812 C6.37642953,5.04947651 6.37642953,4.62077852 6.6435906,4.35637584 C6.91067114,4.09195302 7.34371812,4.09195302 7.61085906,4.35637584 L8.98848322,5.72004698 L10.371604,4.3510604 C10.6385839,4.08653691 11.0718322,4.08653691 11.3388725,4.3510604 C11.6060336,4.61548322 11.6060336,5.0440604 11.3388725,5.30840268 L9.84650336,6.7885302 L11.2908725,6.78887248 C11.6658926,6.78887248 11.8868456,7.05108054 11.8868456,7.42225503 C11.8868456,7.79351007 11.6658926,8.08080537 11.2908725,8.08080537 L9.81813423,8.08080537 L9.81813423,8.88822819 L11.250745,8.88822819 Z" id="Shape"></path>
            </g>
        </g>
    </g>
</svg>