<?xml version="1.0" encoding="UTF-8"?>
<svg width="18px" height="18px" viewBox="0 0 18 18" version="1.1" xmlns="http://www.w3.org/2000/svg" xmlns:xlink="http://www.w3.org/1999/xlink">
    <!-- Generator: Sketch 52.6 (67491) - http://www.bohemiancoding.com/sketch -->
    <title>Max Width or Height @2x: 28pt x 28pt@2x</title>
    <desc>Created with Sketch.</desc>
    <g id="-" stroke="none" stroke-width="1" fill="none" fill-rule="evenodd">
        <g id="1-9-IDC" transform="translate(-76.000000, -739.000000)" fill="#8997B3" fill-rule="nonzero">
            <g id="图标/法币/选中" transform="translate(76.000000, 739.000000)">
                <path d="M9,0.0102857143 C4.032,0.0102857143 0.0102857143,4.032 0.0102857143,9 C0.0102857143,13.968 4.032,17.9897143 9,17.9897143 C13.968,17.9897143 17.9897143,13.968 17.9897143,9 C17.9897143,4.032 13.968,0.0102857143 9,0.0102857143 Z M14.328,10.2857143 L11.4377143,13.1348571 C11.3451429,13.2171429 11.2011429,13.1554286 11.2011429,13.032 L11.2011429,11.6022857 C11.2011429,11.5302857 11.1394286,11.4582857 11.0571429,11.4582857 L3.55885714,11.4582857 C3.48685714,11.4582857 3.41485714,11.3965714 3.41485714,11.3142857 L3.41485714,10.1828571 C3.41485714,10.1108571 3.47657143,10.0388571 3.55885714,10.0388571 L14.2354286,10.0388571 C14.3588571,10.0491429 14.4205714,10.1931429 14.328,10.2857143 Z M3.76457143,7.95085714 C3.64114286,7.95085714 3.57942857,7.79657143 3.672,7.71428571 L6.56228571,4.86514286 C6.65485714,4.78285714 6.79885714,4.84457143 6.79885714,4.968 L6.80914286,6.408 C6.80914286,6.48 6.87085714,6.54171429 6.95314286,6.54171429 L14.4514286,6.54171429 C14.5234286,6.54171429 14.5954286,6.60342857 14.5954286,6.68571429 L14.5954286,7.96114286 L3.76457143,7.96114286 L3.76457143,7.95085714 Z" id="Shape"></path>
            </g>
        </g>
    </g>
</svg>