<?xml version="1.0" encoding="UTF-8"?>
<svg width="21px" height="18px" viewBox="0 0 21 18" version="1.1" xmlns="http://www.w3.org/2000/svg" xmlns:xlink="http://www.w3.org/1999/xlink">
    <!-- Generator: Sketch 52.6 (67491) - http://www.bohemiancoding.com/sketch -->
    <title>Max Width or Height @2x: 28pt x 28pt@2x</title>
    <desc>Created with Sketch.</desc>
    <g id="-" stroke="none" stroke-width="1" fill="none" fill-rule="evenodd">
        <g id="1-3-备份钱包" transform="translate(-320.000000, -363.000000)" fill="#B6C6D3">
            <g id="大组件/列表/输入" transform="translate(20.000000, 347.000000)">
                <g id="icon/占位符备份" transform="translate(300.968254, 16.000000)">
                    <path d="M19.0288616,9.47768196 C19.1447962,9.74573468 19.0987009,10.0686211 18.8859166,10.2949156 C18.8753111,10.3061944 18.8643612,10.3171443 18.8530824,10.3277497 L14.1739561,14.7275252 C13.8452707,15.0365876 13.3328598,15.0365876 13.0041745,14.7275252 C12.7004333,14.4419179 12.685733,13.9641566 12.9713403,13.6604155 C12.9819458,13.6491367 12.9928957,13.6381868 13.0041745,13.6275814 L17.417577,9.47766554 L13.0041745,5.32774972 C12.7004333,5.0421424 12.685733,4.5643811 12.9713403,4.26063998 C12.9819458,4.24936118 12.9928957,4.23841128 13.0041745,4.22780584 C13.3328598,3.91874353 13.8452707,3.91874353 14.1739561,4.22780584 L18.8530824,8.62758136 C19.0913504,8.85162438 19.1517563,9.19390988 19.0288616,9.47768196 Z" id="Combined-Shape"></path>
                </g>
            </g>
        </g>
    </g>
</svg>