<?xml version="1.0" encoding="UTF-8"?>
<svg width="18px" height="18px" viewBox="0 0 18 18" version="1.1" xmlns="http://www.w3.org/2000/svg" xmlns:xlink="http://www.w3.org/1999/xlink">
    <!-- Generator: Sketch 52.6 (67491) - http://www.bohemiancoding.com/sketch -->
    <title>Max Width or Height @2x: 28pt x 28pt@2x</title>
    <desc>Created with Sketch.</desc>
    <g id="-" stroke="none" stroke-width="1" fill="none" fill-rule="evenodd">
        <g id="1-10-转账" transform="translate(-314.000000, -176.000000)" fill="#B6C6D3">
            <g id="大组件/列表/输入备份" transform="translate(40.000000, 160.000000)">
                <g id="icon/占位符备份" transform="translate(274.015873, 16.000000)">
                    <path d="M9.77931074,9 L11.3768483,7.35008418 C11.6736846,7.04351551 11.6736846,6.55670896 11.3768483,6.2501403 C11.3713045,6.24441473 11.3656687,6.23877894 11.3599431,6.23323514 C11.0658446,5.94847306 10.5965853,5.95604175 10.3118233,6.2501403 L8.71428571,7.90005612 L7.11674817,6.2501403 C7.11120437,6.24441473 7.10556858,6.23877894 7.09984301,6.23323514 C6.80574447,5.94847306 6.33648522,5.95604175 6.05172314,6.2501403 C5.75488682,6.55670896 5.75488682,7.04351551 6.05172314,7.35008418 L7.64926069,9 L6.05172314,10.6499158 C5.75488682,10.9564845 5.75488682,11.443291 6.05172314,11.7498597 C6.05726695,11.7555853 6.06290273,11.7612211 6.0686283,11.7667649 C6.36272684,12.0515269 6.83198609,12.0439582 7.11674817,11.7498597 L8.71428571,10.0999439 L10.3118233,11.7498597 C10.3173671,11.7555853 10.3230028,11.7612211 10.3287284,11.7667649 C10.622827,12.0515269 11.0920862,12.0439582 11.3768483,11.7498597 C11.6736846,11.443291 11.6736846,10.9564845 11.3768483,10.6499158 L9.77931074,9 Z M8.71428571,16 C4.97102241,16 1.93650794,12.8659932 1.93650794,9 C1.93650794,5.13400675 4.97102241,2 8.71428571,2 C12.457549,2 15.4920635,5.13400675 15.4920635,9 C15.4920635,12.8659932 12.457549,16 8.71428571,16 Z" id="Combined-Shape"></path>
                </g>
            </g>
        </g>
    </g>
</svg>