<?xml version="1.0" encoding="UTF-8"?>
<svg width="22px" height="22px" viewBox="0 0 22 22" version="1.1" xmlns="http://www.w3.org/2000/svg" xmlns:xlink="http://www.w3.org/1999/xlink">
    <!-- Generator: Sketch 52.6 (67491) - http://www.bohemiancoding.com/sketch -->
    <title>icon/关闭@2x</title>
    <desc>Created with Sketch.</desc>
    <g id="icon/关闭" stroke="none" stroke-width="1" fill="none" fill-rule="evenodd">
        <g id="分组-2">
            <rect id="矩形" x="0" y="0" width="22" height="22"></rect>
        </g>
        <path d="M12.3137085,10.3137085 L18.3137085,10.3137085 C18.8659932,10.3137085 19.3137085,10.7614237 19.3137085,11.3137085 C19.3137085,11.8659932 18.8659932,12.3137085 18.3137085,12.3137085 L12.3137085,12.3137085 L12.3137085,18.3137085 C12.3137085,18.8659932 11.8659932,19.3137085 11.3137085,19.3137085 C10.7614237,19.3137085 10.3137085,18.8659932 10.3137085,18.3137085 L10.3137085,12.3137085 L4.3137085,12.3137085 C3.76142375,12.3137085 3.3137085,11.8659932 3.3137085,11.3137085 C3.3137085,10.7614237 3.76142375,10.3137085 4.3137085,10.3137085 L10.3137085,10.3137085 L10.3137085,4.3137085 C10.3137085,3.76142375 10.7614237,3.3137085 11.3137085,3.3137085 C11.8659932,3.3137085 12.3137085,3.76142375 12.3137085,4.3137085 L12.3137085,10.3137085 Z" id="Combined-Shape" fill="#B3BED9" transform="translate(11.313708, 11.313708) rotate(45.000000) translate(-11.313708, -11.313708) "></path>
    </g>
</svg>