<?xml version="1.0" encoding="UTF-8"?>
<svg width="21px" height="18px" viewBox="0 0 21 18" version="1.1" xmlns="http://www.w3.org/2000/svg" xmlns:xlink="http://www.w3.org/1999/xlink">
    <!-- Generator: Sketch 52.6 (67491) - http://www.bohemiancoding.com/sketch -->
    <title>Max Width or Height @2x: 28pt x 28pt@2x</title>
    <desc>Created with Sketch.</desc>
    <g id="-" stroke="none" stroke-width="1" fill="none" fill-rule="evenodd">
        <g id="1-1-创建钱包" transform="translate(-320.000000, -330.000000)" fill="#B6C6D3" fill-rule="nonzero">
            <g id="大组件/列表/输入" transform="translate(20.000000, 314.000000)">
                <g id="icon/占位符备份" transform="translate(300.968254, 16.000000)">
                    <path d="M9.4403,6.73691176 L12.1499714,9.18411765 L12.1499714,9.02617647 C12.1499714,7.68411765 11.0138429,6.65794118 9.5274,6.65794118 C9.5274,6.73691176 9.5274,6.73691176 9.4403,6.73691176 Z M5.6816,7.36823529 L6.99288571,8.55279412 L6.99288571,9.10514706 C6.99288571,10.4472059 8.12901429,11.4738235 9.61545714,11.4738235 C9.79013571,11.4738235 9.96481429,11.4738235 10.2270714,11.3944118 L11.5383571,12.5789706 C10.9262643,12.8948529 10.3141714,13.0527941 9.61497857,13.0527941 C7.16756429,13.0527941 5.24466429,11.3158824 5.24466429,9.10514706 C5.24466429,8.47382353 5.41934286,7.92102941 5.6816,7.36823529 Z M0.87435,3.02617647 L2.88435,4.84205882 L3.23418571,5.15794118 C1.74822143,6.18411765 0.611614286,7.52617647 0,9.10514706 C1.48596429,12.5789706 5.24466429,15.0261765 9.61497857,15.0261765 C10.9262643,15.0261765 12.23755,14.7892647 13.4612571,14.3948529 L13.8106143,14.7107353 L16.3456071,17 L17.4822143,15.9738235 L2.01,2 L0.87435,3.02617647 Z M9.61497857,5.15794118 C12.0623929,5.15794118 13.9857714,6.89485294 13.9857714,9.10514706 C13.9857714,9.57897059 13.8981929,10.1317647 13.6364143,10.5261765 L16.1709286,12.8158824 C17.4822143,11.7892647 18.5307643,10.5261765 19.1428571,9.10558824 C17.6568929,5.63176471 13.8981929,3.18411765 9.52787857,3.18411765 C8.30417143,3.18411765 7.16756429,3.42102941 6.03143571,3.73691176 L7.95433571,5.47382353 C8.47885,5.23691176 9.09046429,5.15794118 9.61497857,5.15794118 Z" id="Shape"></path>
                </g>
            </g>
        </g>
    </g>
</svg>