<?xml version="1.0" encoding="UTF-8"?>
<svg width="21px" height="18px" viewBox="0 0 21 18" version="1.1" xmlns="http://www.w3.org/2000/svg" xmlns:xlink="http://www.w3.org/1999/xlink">
    <!-- Generator: Sketch 52.6 (67491) - http://www.bohemiancoding.com/sketch -->
    <title>Max Width or Height @2x: 28pt x 28pt@2x</title>
    <desc>Created with Sketch.</desc>
    <g id="-" stroke="none" stroke-width="1" fill="none" fill-rule="evenodd">
        <g id="1-1-创建钱包" transform="translate(-320.000000, -228.000000)" fill="#B6C6D3">
            <g id="大组件/列表/输入备份" transform="translate(20.000000, 212.000000)">
                <g id="icon/占位符备份" transform="translate(300.968254, 16.000000)">
                    <path d="M3.55271368e-15,9.05968125 C1.74836974,5.01989375 4.90755493,3 9.47755557,3 C14.0475562,3 17.2693234,5.01989375 19.1428571,9.05968125 C17.1268606,13.0198937 13.9363844,15 9.57142857,15 C5.20647272,15 2.01599653,13.0198937 3.55271368e-15,9.05968125 Z M9.47755557,12.9135197 C11.820314,12.9135197 13.719495,11.1048452 13.719495,8.87373221 C13.719495,6.64261918 11.820314,4.83394471 9.47755557,4.83394471 C7.13479711,4.83394471 5.23561614,6.64261918 5.23561614,8.87373221 C5.23561614,11.1048452 7.13479711,12.9135197 9.47755557,12.9135197 Z M9.47755557,10.893626 C8.30617634,10.893626 7.35658585,9.98928872 7.35658585,8.87373221 C7.35658585,7.75817569 8.30617634,6.85383846 9.47755557,6.85383846 C10.6489348,6.85383846 11.5985253,7.75817569 11.5985253,8.87373221 C11.5985253,9.98928872 10.6489348,10.893626 9.47755557,10.893626 Z" id="Combined-Shape"></path>
                </g>
            </g>
        </g>
    </g>
</svg>