<?xml version="1.0" encoding="UTF-8"?>
<svg width="175px" height="40px" viewBox="0 0 175 40" version="1.1" xmlns="http://www.w3.org/2000/svg" xmlns:xlink="http://www.w3.org/1999/xlink">
    <!-- Generator: Sketch 52.6 (67491) - http://www.bohemiancoding.com/sketch -->
    <title>Group 2@2x</title>
    <desc>Created with Sketch.</desc>
    <defs>
        <linearGradient x1="47.3416627%" y1="-7.76904353%" x2="47.3416627%" y2="84.1777696%" id="linearGradient-1">
            <stop stop-color="#FEEDBE" offset="0%"></stop>
            <stop stop-color="#FFB87F" offset="40.5482298%"></stop>
            <stop stop-color="#FFB172" offset="60.3374339%"></stop>
            <stop stop-color="#FFA459" offset="100%"></stop>
        </linearGradient>
        <path d="M0,11 C8.19252326,3.66666667 17.1064709,2.42883417e-13 26.741843,7.28650252e-13 C27.4793366,-7.24281273e-13 140.418473,7.175384e-14 140.418473,2.43996884e-12 C150.524239,8.13322946e-13 160.701331,3.66666667 170.949749,11 L146.177062,29.8374548 C141.106132,33.9458183 135.839478,36 130.377103,36 C125.383016,36 37.5444326,36 37.5444326,36 C31.3985077,36 26.1767345,34.0866299 21.879113,30.2598896 L0,11 Z" id="path-2"></path>
        <filter x="-2.3%" y="-5.6%" width="104.7%" height="122.2%" filterUnits="objectBoundingBox" id="filter-3">
            <feOffset dx="0" dy="2" in="SourceAlpha" result="shadowOffsetOuter1"></feOffset>
            <feGaussianBlur stdDeviation="1" in="shadowOffsetOuter1" result="shadowBlurOuter1"></feGaussianBlur>
            <feColorMatrix values="0 0 0 0 0.370642007   0 0 0 0 0.212143219   0 0 0 0 0.0151216791  0 0 0 0.288496377 0" type="matrix" in="shadowBlurOuter1"></feColorMatrix>
        </filter>
        <path d="M2.4158453e-13,11 C8.19252326,3.66666667 17.1064709,-1.02188265e-12 26.741843,-5.36115817e-13 C27.4793366,-1.98904734e-12 140.418473,-1.19301223e-12 140.418473,1.17520277e-12 C150.524239,-4.51443123e-13 160.701331,3.66666667 170.949749,11 L146.177062,29.8374548 C141.106132,33.9458183 135.839478,36 130.377103,36 C125.383016,36 37.5444326,36 37.5444326,36 C31.3985077,36 26.1767345,34.0866299 21.879113,30.2598896 L2.4158453e-13,11 Z" id="path-4"></path>
        <filter x="-30.4%" y="-184.6%" width="160.8%" height="469.2%" filterUnits="objectBoundingBox" id="filter-6">
            <feGaussianBlur stdDeviation="8" in="SourceGraphic"></feGaussianBlur>
        </filter>
        <circle id="path-7" cx="24.5" cy="17.5" r="3.5"></circle>
        <filter x="-28.6%" y="-28.6%" width="157.1%" height="157.1%" filterUnits="objectBoundingBox" id="filter-8">
            <feGaussianBlur stdDeviation="1" in="SourceAlpha" result="shadowBlurInner1"></feGaussianBlur>
            <feOffset dx="0" dy="1" in="shadowBlurInner1" result="shadowOffsetInner1"></feOffset>
            <feComposite in="shadowOffsetInner1" in2="SourceAlpha" operator="arithmetic" k2="-1" k3="1" result="shadowInnerInner1"></feComposite>
            <feColorMatrix values="0 0 0 0 1   0 0 0 0 1   0 0 0 0 1  0 0 0 0.5 0" type="matrix" in="shadowInnerInner1"></feColorMatrix>
        </filter>
        <circle id="path-9" cx="144.5" cy="17.5" r="3.5"></circle>
        <filter x="-28.6%" y="-28.6%" width="157.1%" height="157.1%" filterUnits="objectBoundingBox" id="filter-10">
            <feGaussianBlur stdDeviation="1" in="SourceAlpha" result="shadowBlurInner1"></feGaussianBlur>
            <feOffset dx="0" dy="1" in="shadowBlurInner1" result="shadowOffsetInner1"></feOffset>
            <feComposite in="shadowOffsetInner1" in2="SourceAlpha" operator="arithmetic" k2="-1" k3="1" result="shadowInnerInner1"></feComposite>
            <feColorMatrix values="0 0 0 0 1   0 0 0 0 1   0 0 0 0 1  0 0 0 0.5 0" type="matrix" in="shadowInnerInner1"></feColorMatrix>
        </filter>
    </defs>
    <g id="-" stroke="none" stroke-width="1" fill="none" fill-rule="evenodd">
        <g id="5-2-玩法说明" transform="translate(-100.000000, -249.000000)">
            <g id="Group-2" transform="translate(102.000000, 249.000000)">
                <g id="Rectangle">
                    <use fill="black" fill-opacity="1" filter="url(#filter-3)" xlink:href="#path-2"></use>
                    <use fill="url(#linearGradient-1)" fill-rule="evenodd" xlink:href="#path-2"></use>
                </g>
                <path d="M0,11 C8.19252326,3.66666667 17.1064709,2.42883417e-13 26.741843,7.28650252e-13 C27.4793366,-7.24281273e-13 140.418473,7.175384e-14 140.418473,2.43996884e-12 C150.524239,8.13322946e-13 160.701331,3.66666667 170.949749,11 L145.630308,5.5 L138.066088,5.5 L30.5700189,5.5 L22.9350029,5.5 L0,11 Z" id="Rectangle" fill-opacity="0.3" fill="#FFFADB"></path>
                <g id="Rectangle">
                    <mask id="mask-5" fill="white">
                        <use xlink:href="#path-4"></use>
                    </mask>
                    <g id="Mask"></g>
                    <rect fill-opacity="0.6" fill="#FFEF8F" filter="url(#filter-6)" mask="url(#mask-5)" x="46" y="12" width="79" height="13" rx="6.5"></rect>
                </g>
                <g id="Oval">
                    <use fill="#D8D8D8" fill-rule="evenodd" xlink:href="#path-7"></use>
                    <use fill="black" fill-opacity="1" filter="url(#filter-8)" xlink:href="#path-7"></use>
                    <use stroke="#6C6C6C" stroke-width="1" xlink:href="#path-7"></use>
                </g>
                <g id="Oval">
                    <use fill="#D8D8D8" fill-rule="evenodd" xlink:href="#path-9"></use>
                    <use fill="black" fill-opacity="1" filter="url(#filter-10)" xlink:href="#path-9"></use>
                    <use stroke="#6C6C6C" stroke-width="1" xlink:href="#path-9"></use>
                </g>
            </g>
        </g>
    </g>
</svg>