<?xml version="1.0" encoding="UTF-8"?>
<svg width="64px" height="80px" viewBox="0 0 64 80" version="1.1" xmlns="http://www.w3.org/2000/svg" xmlns:xlink="http://www.w3.org/1999/xlink">
    <!-- Generator: Sketch 52.6 (67491) - http://www.bohemiancoding.com/sketch -->
    <title>Group 2@2x</title>
    <desc>Created with Sketch.</desc>
    <g id="-" stroke="none" stroke-width="1" fill="none" fill-rule="evenodd">
        <g id="1-6-弹窗" transform="translate(-156.000000, -294.000000)" fill-rule="nonzero">
            <g id="Group-2" transform="translate(156.000000, 294.000000)">
                <path d="M57.1240796,6.40802179 C57.1200796,2.86800975 53.8520751,2.60769184e-12 50.4360703,2.60769184e-12 L6.68800932,2.60769184e-12 C3.26800455,2.60769184e-12 -5.47117907e-13,2.86800975 -5.47117907e-13,6.40802179 L-5.47117907e-13,67.8122306 C-5.47117907e-13,71.3522427 3.26800455,74.7402542 6.68800932,74.7402542 L15.6720218,74.7402542 L57.1200796,31.8121082 L57.1200796,6.41202181 L57.1240796,6.40802179 Z M27.232038,50.4481716 L11.3280158,50.4481716 L11.3280158,46.2081572 L27.232038,46.2081572 L27.232038,50.4481716 Z M27.232038,40.8321389 L11.3280158,40.8321389 L11.3280158,36.5921245 L27.232038,36.5921245 L27.232038,40.8321389 Z M45.7960638,31.2201062 L11.3280158,31.2201062 L11.3280158,26.9800918 L45.7960638,26.9800918 L45.7960638,31.2201062 Z M45.7960638,21.6040735 L11.3280158,21.6040735 L11.3280158,17.3640591 L45.7960638,17.3640591 L45.7960638,21.6040735 Z" id="Shape" fill="#6362F1"></path>
                <path d="M63.6000886,45.1001534 C63.7880889,45.6361552 63.9200891,46.3201575 63.9920892,47.1281603 C64.0560893,47.940163 63.7320888,48.7281657 63.0080878,49.4761683 C62.6840874,49.8041694 62.3880869,50.1321705 62.1240866,50.4281715 C61.9056335,50.693641 61.6747069,50.9485952 61.4320856,51.1921741 C61.2235373,51.4184069 60.9930769,51.6234098 60.7440847,51.8041762 L52.404073,43.2721472 C52.8040736,42.928146 53.2400742,42.5121446 53.7240749,42.048143 C54.2160756,41.5801414 54.6280761,41.2081402 54.9560766,40.9281392 C55.7280777,40.1841367 56.5880789,39.8601356 57.5000801,39.9681359 C58.4200814,40.0761363 59.1680825,40.288137 59.7600833,40.6281382 C60.4120842,40.9681393 61.1080852,41.5521413 61.8680862,42.4041442 C62.6280873,43.2481471 63.2040881,44.1441501 63.6000886,45.1001534 Z" id="Path" fill="#6362F1"></path>
                <path d="M30.4360424,66.0282246 L32.8880458,63.4802159 C33.9782616,62.3566564 35.0583072,61.223273 36.1280503,60.0802043 C37.304052,58.8242001 38.4880536,57.5881959 39.6680553,56.3641917 C42.4760592,53.4521818 45.6520636,50.2041707 49.1840685,46.6041585 L57.42408,55.1401875 L47.9040668,65.0002211 L44.3720618,68.6562335 L41.1320573,72.0162449 C40.3522183,72.818418 39.5854496,73.6331947 38.8320541,74.4602532 L37.8040527,75.568257 L36.7280512,76.43626 C36.3567881,76.7211541 35.9620407,76.9740606 35.5480495,77.1922625 C35.156049,77.4042633 34.5480481,77.6522641 33.732047,77.9562651 C32.9040459,78.2642662 32.0680447,78.5602672 31.2240435,78.8162681 C30.4160277,79.0889129 29.5965936,79.3264692 28.7680401,79.5282705 C27.988039,79.7402712 27.3960382,79.8882717 27.0040376,79.9442719 C26.2240365,80.0762723 25.6960358,79.972272 25.4280354,79.6482709 C25.1680351,79.3042697 25.108035,78.7202677 25.2320352,77.912265 C25.509593,76.4555252 25.8701815,75.0158395 26.3120367,73.6002503 L27.0480377,71.2122422 C27.288038,70.4522396 27.4680383,69.9602379 27.5880384,69.676237 C27.988039,68.804234 28.5080397,68.0242314 29.1680406,67.3562291 L30.4360424,66.0282246 Z" id="Path" fill="#AEB8C2"></path>
            </g>
        </g>
    </g>
</svg>