<?xml version="1.0" encoding="UTF-8"?>
<svg width="50px" height="50px" viewBox="0 0 50 50" version="1.1" xmlns="http://www.w3.org/2000/svg" xmlns:xlink="http://www.w3.org/1999/xlink">
    <!-- Generator: Sketch 52.6 (67491) - http://www.bohemiancoding.com/sketch -->
    <title>好友@2x</title>
    <desc>Created with Sketch.</desc>
    <defs>
        <circle id="path-1" cx="25" cy="25" r="25"></circle>
        <filter x="-12.0%" y="-12.0%" width="124.0%" height="124.0%" filterUnits="objectBoundingBox" id="filter-2">
            <feGaussianBlur stdDeviation="3" in="SourceAlpha" result="shadowBlurInner1"></feGaussianBlur>
            <feOffset dx="3" dy="6" in="shadowBlurInner1" result="shadowOffsetInner1"></feOffset>
            <feComposite in="shadowOffsetInner1" in2="SourceAlpha" operator="arithmetic" k2="-1" k3="1" result="shadowInnerInner1"></feComposite>
            <feColorMatrix values="0 0 0 0 0.00964870176   0 0 0 0 0.0843201962   0 0 0 0 0.169935162  0 0 0 0.5 0" type="matrix" in="shadowInnerInner1"></feColorMatrix>
        </filter>
        <radialGradient cx="49.5063227%" cy="5.42018345%" fx="49.5063227%" fy="5.42018345%" r="55.2888519%" gradientTransform="translate(0.495063,0.054202),scale(0.960291,1.000000),rotate(90.000000),translate(-0.495063,-0.054202)" id="radialGradient-3">
            <stop stop-color="#FFF1EA" offset="0%"></stop>
            <stop stop-color="#FAC7B3" offset="100%"></stop>
        </radialGradient>
        <radialGradient cx="50%" cy="1.71816352%" fx="50%" fy="1.71816352%" r="69.6646001%" gradientTransform="translate(0.500000,0.017182),scale(0.900194,1.000000),rotate(90.000000),translate(-0.500000,-0.017182)" id="radialGradient-4">
            <stop stop-color="#B25A22" offset="0%"></stop>
            <stop stop-color="#000000" offset="100%"></stop>
        </radialGradient>
    </defs>
    <g id="-" stroke="none" stroke-width="1" fill="none" fill-rule="evenodd">
        <g id="5-1-猫头鹰游戏" transform="translate(-20.000000, -700.000000)">
            <g id="好友" transform="translate(20.000000, 700.000000)">
                <g id="Oval">
                    <use fill="#03346C" fill-rule="evenodd" xlink:href="#path-1"></use>
                    <use fill="black" fill-opacity="1" filter="url(#filter-2)" xlink:href="#path-1"></use>
                    <circle stroke="#1C9FF0" stroke-width="3" stroke-linejoin="square" cx="25" cy="25" r="23.5"></circle>
                </g>
                <g id="Group-4" transform="translate(11.000000, 5.000000)">
                    <path d="M2.47750419,37.576754 C5.0720063,35.4144663 8.76261166,34.3333225 13.5493202,34.3333225 C20.7293831,34.3333225 25.8239088,38.1666613 25.8239088,38.1666613 C25.8239088,38.1666613 20.7293831,42 13.5493202,42 C8.07870907,42 4.38810371,40.5255847 2.47750419,37.576754 Z" id="Path-6" fill="#016C7A"></path>
                    <path d="M5.41735253,20.3168327 C3.96332984,18.8797341 2.65054767,18.4682138 1.47900603,19.0822716 C-0.278306418,20.0033584 -0.0524554037,24.6600435 3.84442493,26.2119021 C4.94984724,31.5962197 8.42956676,33.369761 12.4737547,33.369761 C15.16988,33.369761 15.16988,34.2521019 12.4737547,36.0167837 L15.0054754,36.0167837 L15.0054754,33.369761 C19.821079,33.576019 22.5057151,30.8663529 23.0593837,25.2407627 C25.6608601,24.8107395 27.1784621,18.1970757 23.0593837,19.5611983 C23.4789316,17.3743648 23.0784519,14.1636258 21.8579448,9.92898148 L8.42956676,9 L4.72061642,10.6314622 L5.41735253,20.3168327 Z" id="Path-4" fill="#FFE3D9"></path>
                    <path d="M6.1663108,21.1507486 C5.0555433,22.1743755 3.76782765,17.5823801 2,19.1375224 C0.23217235,20.6926646 0.823736085,23.6889041 4.72061642,25.2407627 C5.82603873,30.6250803 10.9428227,33.369761 12.4737547,33.369761 C12.4940575,34.0414872 12.4940575,34.9238281 12.4737547,36.0167837 L15.0054754,36.0167837 L15.0054754,33.369761 C19.821079,33.576019 22.5057151,30.8663529 23.0593837,25.2407627 C24.4400882,25.0125327 26.0937964,23.2632248 26,20.8475981 C25.9784211,18.7694614 24.098168,18.2183388 23.0593837,19.1375224 C22.0672118,16.7351916 21.2544397,14.3744208 20.6210675,12.0552099 L10.8320259,12.0552099 L7.10387511,13.2235749 C7.2193439,17.8259395 6.90682247,20.4683307 6.1663108,21.1507486 Z" id="Path-4" fill="url(#radialGradient-3)"></path>
                    <circle id="Oval" fill="#000000" cx="11" cy="20" r="2"></circle>
                    <path d="M9.62474723,24.7926089 C10.7293167,24.7926089 12.1175286,23.8015596 12.1175286,23.2492748 C12.1175286,22.6969901 10.7293167,22 9.62474723,22 C8.52017773,22 7,22.6969901 7,23.2492748 C7,23.8015596 8.52017773,24.7926089 9.62474723,24.7926089 Z" id="Oval-Copy-10" fill="#FF7C7E"></path>
                    <path d="M20.6247472,24.7926089 C21.7293167,24.7926089 23.1175286,23.8015596 23.1175286,23.2492748 C23.1175286,22.6969901 21.7293167,22 20.6247472,22 C19.5201777,22 18,22.6969901 18,23.2492748 C18,23.8015596 19.5201777,24.7926089 20.6247472,24.7926089 Z" id="Oval-Copy-11" fill="#FF7C7E"></path>
                    <circle id="Oval-Copy-7" fill="#000000" cx="19" cy="20" r="2"></circle>
                    <circle id="Oval" fill="#FFFFFF" cx="10" cy="19" r="1"></circle>
                    <circle id="Oval-Copy-9" fill="#FFFFFF" cx="18" cy="19" r="1"></circle>
                    <path d="M5.71510525,20.7102795 C5.71510525,17.8736692 5.71510525,15.9456005 5.71510525,14.9260734 C5.71510525,13.3967828 6.37737385,10.7427845 8.24641565,10.7427845 C10.1154574,10.7427845 16.3938786,10.7427845 18.3970975,10.7427845 C20.4003164,10.7427845 21.7342911,12.7098945 21.7342911,13.9700103 C21.7342911,14.8100875 21.9985421,16.7259066 22.5270439,19.7174677 C23.0457182,18.6304795 23.8434468,18.3200065 24.9202297,18.7860488 C25.1902107,15.9942063 24.7726473,12.8502248 24.4067542,10.7427845 C23.9069753,7.86420023 22.6573913,6.2053829 20.6580021,5.76633246 L18.9498087,-3.68949316e-12 C18.5813346,1.44161731 17.3599264,2.7208817 15.285584,3.83779318 C14.4736827,3.83779318 12.6596248,3.83779318 9.84341031,3.83779318 C5.701838,4.26593145 3.26859588,5.84782051 2.54368395,8.58346035 C1.81877202,11.3191002 1.81877202,14.5734077 2.54368395,18.3463827 L5.71510525,20.7102795 Z" id="Path-3" fill="url(#radialGradient-4)"></path>
                    <path d="M11.0971047,25.1438902 L18.8934258,25.1438902 C18.4653687,28.3812967 17.1954076,30 15.0835424,30 C12.9716773,30 11.6428647,28.3812967 11.0971047,25.1438902 Z" id="Path-2" fill="#FE667F"></path>
                    <rect id="Rectangle" fill="#FFFFFF" x="13" y="25" width="5" height="1"></rect>
                </g>
            </g>
        </g>
    </g>
</svg>