<?xml version="1.0" encoding="UTF-8"?>
<svg width="18px" height="18px" viewBox="0 0 18 18" version="1.1" xmlns="http://www.w3.org/2000/svg" xmlns:xlink="http://www.w3.org/1999/xlink">
    <!-- Generator: Sketch 52.6 (67491) - http://www.bohemiancoding.com/sketch -->
    <title>Max Width or Height @2x: 28pt x 28pt@2x</title>
    <desc>Created with Sketch.</desc>
    <g id="-" stroke="none" stroke-width="1" fill="none" fill-rule="evenodd">
        <g id="1-4-备份私钥" transform="translate(-317.000000, -335.000000)" fill="#8997B3">
            <g id="icon/箭头" transform="translate(317.000000, 335.000000)">
                <path d="M3,0 L11,0 C12.1045695,-2.02906125e-16 13,0.8954305 13,2 L13,12 C13,13.1045695 12.1045695,14 11,14 L3,14 C1.8954305,14 1,13.1045695 1,12 L1,2 C1,0.8954305 1.8954305,2.02906125e-16 3,0 Z M4,3 L4,4 L10,4 L10,3 L4,3 Z M4,9 L4,10 L10,10 L10,9 L4,9 Z M4,6 L4,7 L10,7 L10,6 L4,6 Z" id="Combined-Shape"></path>
                <path d="M15,2 L17,2 C17,10.9952367 17,15.492855 17,15.492855 C17,16.9756822 16.0117458,18 14.4220386,18 C14.4220386,18 10.9480257,18 4,18 L4,16.0467068 L13,16.0467068 C14.3333333,15.6774723 15,15.0552367 15,14.18 C15,13.8670612 15,9.80706122 15,2 Z" id="Rectangle"></path>
            </g>
        </g>
    </g>
</svg>