<?xml version="1.0" encoding="UTF-8"?>
<svg width="20px" height="20px" viewBox="0 0 20 20" version="1.1" xmlns="http://www.w3.org/2000/svg" xmlns:xlink="http://www.w3.org/1999/xlink">
    <!-- Generator: Sketch 52.6 (67491) - http://www.bohemiancoding.com/sketch -->
    <title>形状结合@2x</title>
    <desc>Created with Sketch.</desc>
    <g id="-" stroke="none" stroke-width="1" fill="none" fill-rule="evenodd">
        <g id="1-8-钱包首页" transform="translate(-247.000000, -737.000000)" fill="#8997B3" fill-rule="nonzero">
            <g id="大组件/各种浮动栏/tabbar" transform="translate(0.000000, 729.000000)">
                <g id="编组-5" transform="translate(242.000000, 8.000000)">
                    <g id="图标/钱包/选中" transform="translate(5.000000, 0.000000)">
                        <path d="M5.03825351,8.73102639 L2.17879439,3.77034864 C4.07009658,1.38674087 6.94695982,-0.0019201548 9.98975562,-4.47996149e-16 C13.6474943,-4.47996149e-16 16.8481199,1.96858911 18.5889866,4.90812643 L10.4351906,4.90812643 C10.2882032,4.89485647 10.1406766,4.88845436 9.99309222,4.88894102 C7.61326817,4.88643857 5.6071424,6.52387097 5.03825351,8.73102639 Z M13.5690844,6.35370479 L19.2971782,6.35370479 C19.7525396,7.51879453 19.985671,8.75886079 19.9845161,10.0097752 C19.9845161,15.5001369 15.5718736,19.9569892 10.104868,20.0195503 L14.1921929,12.9267905 C14.7875315,12.0698108 15.1054797,11.050746 15.1030824,10.0072727 C15.104638,8.63252973 14.5515749,7.31528322 13.5690844,6.35370479 Z M6.36204628,10.0097752 C6.3620429,8.00378222 7.98626849,6.37657091 9.99225806,6.37289019 C12.0008542,6.37289019 13.629143,8.00117906 13.629143,10.0097752 C13.629143,12.0183713 12.0008542,13.6466602 9.99225806,13.6466602 C7.98626849,13.6429794 6.3620429,12.0157681 6.36204628,10.0097752 Z M11.3602607,14.9479309 L8.49996741,19.9111111 C3.68693386,19.1904073 0,15.033014 0,10.0097752 C0,8.2263669 0.467122835,6.5505637 1.28208538,5.10164874 L5.3635712,12.1818964 C6.20361219,13.9809975 8.00837215,15.1319343 9.99392635,15.1347801 C10.4668882,15.1347801 10.9231672,15.0680482 11.3602607,14.9470968 L11.3602607,14.9479309 Z" id="Shape"></path>
                    </g>
                </g>
            </g>
        </g>
    </g>
</svg>