<?xml version="1.0" encoding="UTF-8"?>
<svg width="18px" height="18px" viewBox="0 0 18 18" version="1.1" xmlns="http://www.w3.org/2000/svg" xmlns:xlink="http://www.w3.org/1999/xlink">
    <!-- Generator: Sketch 52.6 (67491) - http://www.bohemiancoding.com/sketch -->
    <title>Max Width or Height @2x: 28pt x 28pt@2x</title>
    <desc>Created with Sketch.</desc>
    <g id="-" stroke="none" stroke-width="1" fill="none" fill-rule="evenodd">
        <g id="1-5-备份钱包" transform="translate(-202.000000, -519.000000)" fill="#8997B3" fill-rule="nonzero">
            <g id="Group" transform="translate(20.000000, 267.000000)">
                <g id="icon/复制-copy" transform="translate(182.000000, 252.000000)">
                    <path d="M-1.75796877e-13,8 L8,8 L8,5.43037837e-14 L-1.75796877e-13,5.43037837e-14 L-1.75796877e-13,8 Z M2,2 L6,2 L6,6 L2,6 L2,2 Z M10,5.43037837e-14 L10,8 L18,8 L18,5.43037837e-14 L10,5.43037837e-14 Z M16,6 L12,6 L12,2 L16,2 L16,6 Z M3,5 L5,5 L5,3 L3,3 L3,5 Z M-1.75796877e-13,18 L8,18 L8,10 L-1.75796877e-13,10 L-1.75796877e-13,18 Z M2,12 L6,12 L6,16 L2,16 L2,12 Z M15,3 L13,3 L13,5 L15,5 L15,3 Z M10,18 L12,18 L12,16 L10,16 L10,18 Z M12,12 L12,16 L14,16 L14,12 L12,12 Z M16,16 L14,16 L14,18 L18,18 L18,14 L16,14 L16,16 Z M16,12 L18,12 L18,10 L16,10 L16,12 Z M10,10 L10,12 L12,12 L12,10 L10,10 Z M3,15 L5,15 L5,13 L3,13 L3,15 Z" id="Shape"></path>
                </g>
            </g>
        </g>
    </g>
</svg>