<?xml version="1.0" encoding="UTF-8"?>
<svg width="20px" height="20px" viewBox="0 0 20 20" version="1.1" xmlns="http://www.w3.org/2000/svg" xmlns:xlink="http://www.w3.org/1999/xlink">
    <!-- Generator: Sketch 52.6 (67491) - http://www.bohemiancoding.com/sketch -->
    <title>形状结合@2x</title>
    <desc>Created with Sketch.</desc>
    <g id="-" stroke="none" stroke-width="1" fill="none" fill-rule="evenodd">
        <g id="1-8-钱包首页" transform="translate(-108.000000, -737.000000)" fill="#6362F1">
            <g id="大组件/各种浮动栏/tabbar" transform="translate(0.000000, 729.000000)">
                <g id="编组-4" transform="translate(108.000000, 8.000000)">
                    <g id="图标/法币/选中">
                        <path d="M14.5159636,2.22519053 L17.703131,4.06392516 C18.5058225,4.52732641 19,5.38150631 19,6.30623387 L19,13.8268211 C19,14.6664765 18.55059,15.4421548 17.8207758,15.8619825 L14.5041644,17.770919 L11.1743657,19.6864261 C10.4476749,20.1045246 9.55232513,20.1045246 8.8256343,19.6864261 L5.49618262,17.770919 L2.3350428,15.9518962 C1.50910002,15.4763912 1,14.5980037 1,13.6469937 L1,6.36398612 C1,5.40398473 1.51430554,4.51695175 2.34892419,4.03764271 L5.50381738,2.22519053 L8.82077582,0.316945702 C9.55544845,-0.105648567 10.4601681,-0.105648567 11.1951878,0.316945702 L14.5117992,2.22519053 L14.5159636,2.22519053 Z M9,9.43558038 L5.75775279,11.6225037 C5.29988798,11.9313374 5.17907441,12.5528694 5.48790812,13.0107342 C5.79674184,13.468599 6.41827379,13.5894126 6.8761386,13.2805789 L10.0605021,11.1326986 L13.2448655,13.2805789 C13.7027303,13.5894126 14.3242623,13.468599 14.633096,13.0107342 C14.9419297,12.5528694 14.8211161,11.9313374 14.3632513,11.6225037 L11.047101,9.38573212 C11.0315825,9.37526475 11.015876,9.36529094 11,9.35580796 L11,6.03596868 C11,5.48368393 10.5522847,5.03596868 10,5.03596868 C9.44771525,5.03596868 9,5.48368393 9,6.03596868 L9,9.43558038 Z" id="Combined-Shape"></path>
                    </g>
                </g>
            </g>
        </g>
    </g>
</svg>